<?xml version="1.0" encoding="utf-8"?>
<!-- Generator: Adobe Illustrator 15.1.0, SVG Export Plug-In . SVG Version: 6.00 Build 0)  -->
<!DOCTYPE svg PUBLIC "-//W3C//DTD SVG 1.1//EN" "http://www.w3.org/Graphics/SVG/1.1/DTD/svg11.dtd">
<svg version="1.1" id="Layer_1" xmlns="http://www.w3.org/2000/svg" xmlns:xlink="http://www.w3.org/1999/xlink" x="0px" y="0px"
	 width="314.297px" height="38.391px" viewBox="22.852 53.086 314.297 38.391"
	 enable-background="new 22.852 53.086 314.297 38.391" xml:space="preserve">
<path id="headerImg" fill="#29ABE2" d="M22.852,53.086V83.32h0.281c0.035,4.219,4.43,8.156,9.844,8.156
	c5.203,0,9.492-3.41,9.809-7.734c0.316,4.289,4.605,7.699,9.809,7.699s9.492-3.41,9.809-7.734c0.316,4.289,4.605,7.699,9.809,7.699
	s9.492-3.41,9.809-7.699c0.316,4.289,4.605,7.699,9.809,7.699s9.492-3.41,9.809-7.699c0.316,4.289,4.605,7.699,9.809,7.699
	s9.492-3.41,9.809-7.699c0.316,4.289,4.605,7.699,9.809,7.699s9.492-3.41,9.809-7.699c0.316,4.324,4.605,7.699,9.809,7.699
	s9.492-3.41,9.809-7.699c0.316,4.324,4.605,7.699,9.809,7.699s9.492-3.41,9.809-7.699c0.316,4.289,4.605,7.699,9.809,7.699
	s9.492-3.41,9.809-7.699c0.316,4.289,4.605,7.699,9.809,7.699s9.492-3.41,9.809-7.699c0.316,4.289,4.605,7.699,9.809,7.699
	c5.238,0,9.492-3.41,9.809-7.699c0.316,4.324,4.605,7.699,9.809,7.699s9.492-3.41,9.809-7.699c0.316,4.324,4.605,7.699,9.809,7.699
	s9.492-3.41,9.809-7.699c0.316,4.324,4.605,7.699,9.809,7.699s9.492-3.41,9.809-7.699c0.316,4.324,4.605,7.699,9.809,7.699
	s9.492-3.41,9.809-7.699c0.316,4.289,4.605,7.734,9.809,7.734c5.414,0,9.809-3.938,9.844-8.156h0.07V53.086H22.852z"/>
</svg>
