<?xml version="1.0" encoding="utf-8"?>
<!-- Generator: Adobe Illustrator 19.1.0, SVG Export Plug-In . SVG Version: 6.00 Build 0)  -->
<svg version="1.1" id="Layer_1" xmlns="http://www.w3.org/2000/svg" xmlns:xlink="http://www.w3.org/1999/xlink" x="0px" y="0px"
	 viewBox="0 0 1024 768" style="enable-background:new 0 0 1024 768;" xml:space="preserve">
<style type="text/css">
	.st0{fill:#29ABE2;}
</style>
<path id="headerImg" class="st0" d="M65,23v86h0.8c0.1,12,12.6,23.2,28,23.2c14.8,0,27-9.7,27.9-22c0.9,12.2,13.1,21.9,27.9,21.9
	c14.8,0,27-9.7,27.9-22c0.9,12.2,13.1,21.9,27.9,21.9c14.8,0,27-9.7,27.9-21.9c0.9,12.2,13.1,21.9,27.9,21.9
	c14.8,0,27-9.7,27.9-21.9c0.9,12.2,13.1,21.9,27.9,21.9c14.8,0,27-9.7,27.9-21.9c0.9,12.2,13.1,21.9,27.9,21.9
	c14.8,0,27-9.7,27.9-21.9c0.9,12.3,13.1,21.9,27.9,21.9c14.8,0,27-9.7,27.9-21.9c0.9,12.3,13.1,21.9,27.9,21.9
	c14.8,0,27-9.7,27.9-21.9c0.9,12.2,13.1,21.9,27.9,21.9c14.8,0,27-9.7,27.9-21.9c0.9,12.2,13.1,21.9,27.9,21.9
	c14.8,0,27-9.7,27.9-21.9c0.9,12.2,13.1,21.9,27.9,21.9c14.9,0,27-9.7,27.9-21.9c0.9,12.3,13.1,21.9,27.9,21.9
	c14.8,0,27-9.7,27.9-21.9c0.9,12.3,13.1,21.9,27.9,21.9c14.8,0,27-9.7,27.9-21.9c0.9,12.3,13.1,21.9,27.9,21.9
	c14.8,0,27-9.7,27.9-21.9c0.9,12.3,13.1,21.9,27.9,21.9c14.8,0,27-9.7,27.9-21.9c0.9,12.2,13.1,22,27.9,22c15.4,0,27.9-11.2,28-23.2
	H959V23H65z"/>
</svg>
